<?xml version="1.0" encoding="utf-8"?>
<!-- Generator: Adobe Illustrator 27.0.0, SVG Export Plug-In . SVG Version: 6.00 Build 0)  -->
<svg version="1.1" id="_图层_1" xmlns="http://www.w3.org/2000/svg" xmlns:xlink="http://www.w3.org/1999/xlink" x="0px" y="0px"
	 viewBox="0 0 185 185" width="24" height="24" style="enable-background:new 0 0 185 185;" xml:space="preserve">
<style type="text/css">
	.st0{fill:none;stroke:currentColor;stroke-width:10;stroke-linecap:round;stroke-linejoin:round;}
	.st1{fill-rule:evenodd;clip-rule:evenodd;fill:currentColor;}
	.st2{fill:currentColor;}
</style>
<path id="_矩形_2_拷贝_16" class="st0" d="M54.6,57.7H132c2.9,0,5.3,2.4,5.3,5.3v59.8c0,2.9-2.4,5.3-5.3,5.3H54.6
	c-2.9,0-5.3-2.4-5.3-5.3V63C49.3,60.1,51.7,57.7,54.6,57.7L54.6,57.7z"/>
<path id="_三角形_1_拷贝_5" class="st1" d="M102.3,89.7c1.8,1.4,2.1,3.9,0.7,5.7c-0.2,0.3-0.5,0.5-0.7,0.7l-13.1,10.1
	c-1.8,1.4-4.3,1-5.7-0.7c-0.5-0.7-0.8-1.6-0.8-2.5V82.8c0-2.2,1.8-4.1,4-4.1c0.9,0,1.8,0.3,2.5,0.8L102.3,89.7L102.3,89.7z"/>
<path class="st2" d="M92.4,0C74.5,0,56.9,5.2,42,15l0,0c0,0,0,0-0.1,0c-2.9,1.9-3.7,5.7-1.8,8.6c1.2,1.8,3.2,2.8,5.2,2.8
	c1.2,0,2.4-0.3,3.4-1c0.1-0.1,0.3-0.2,0.4-0.3C62,16.8,77,12.4,92.4,12.4c0,0,0.1,0,0.1,0c44.2,0,80.1,35.8,80.1,80.1
	c0,13.3-3.3,26.5-9.7,38.2l-0.7-3.1c-0.6-2.9-3.2-4.9-6-4.9c-0.4,0-0.9,0-1.3,0.1c-3.4,0.7-5.5,4-4.8,7.3l3,14.1
	c1,4.9,5.3,8.2,10.1,8.2c0.7,0,1.4-0.1,2.1-0.2l14.1-3c3.4-0.7,5.5-4,4.8-7.4c-0.6-2.9-3.2-4.9-6-4.9c-0.4,0-0.9,0-1.3,0.1l-3.9,0.8
	l0,0l0,0c7.9-13.9,12-29.5,11.9-45.5C185,41.4,143.6,0,92.5,0C92.5,0,92.4,0,92.4,0L92.4,0z"/>
<path class="st2" d="M21.8,32.5c-0.7,0-1.4,0.1-2.1,0.2l-14.1,3c-3.3,0.7-5.4,4-4.7,7.2c0.6,3,3.2,5,6.1,5c0.4,0,0.8,0,1.2-0.1
	L12,47C4.1,60.9,0,76.6,0,92.5C0,143.6,41.4,185,92.5,185c0,0,0.1,0,0.1,0c17.6,0,34.9-5.1,49.8-14.6c0.3-0.1,0.6-0.3,0.9-0.5
	c2.9-1.9,3.6-5.8,1.7-8.6c-1.2-1.8-3.2-2.8-5.2-2.8c-1.2,0-2.4,0.3-3.4,1c-0.1,0-0.1,0.1-0.2,0.1l0-0.1c-13,8.5-28.1,13-43.6,13
	c0,0-0.1,0-0.1,0c-44.2,0-80.1-35.8-80.1-80.1c0-13.3,3.3-26.5,9.7-38.2l0.6,3c0,0,0,0,0,0c0.6,2.9,3.2,4.9,6,4.9
	c0.4,0,0.9,0,1.3-0.1c3.3-0.7,5.5-4,4.7-7.3l-3-14.1C30.8,35.8,26.5,32.5,21.8,32.5L21.8,32.5L21.8,32.5z"/>
</svg>
